<svg xmlns="http://www.w3.org/2000/svg" viewBox="0 0 1540 1260" role="img" aria-labelledby="title desc">
  <title id="title">Five representative horse coat patterns</title>
  <desc id="desc">One chestnut horse shown as five teaching coats. Neither modeled pattern is the plain chestnut. Frame-overo keeps a colored topline and legs around white side patches. Leopard-complex is a pale coat with spots across the body. Fewspot is mostly white with only a few dark spots. Pintaloosa combines the frame patches and the leopard spots.</desc>
  <!-- Anatomy: chestnut horse by Jan Graham, OpenClipart 259732, public domain.
       https://openclipart.org/detail/259732/chestnut-horse-for-big-read
       Each path is stored once. Coats select the base fill, the leopard spot field, and the frame marking layer. -->
  <rect width="1540" height="1260" fill="#fbf8f3"/>
  <defs>
    <linearGradient id="field" x1="0" y1="0" x2="0" y2="1">
      <stop offset="0" stop-color="#fbf8f3"/>
      <stop offset="1" stop-color="#f0e6d8"/>
    </linearGradient>
    <filter id="organic-frame" x="-0.5" y="-0.5" width="2" height="2" color-interpolation-filters="sRGB">
      <feGaussianBlur stdDeviation="9" result="blurred"/>
      <feColorMatrix in="blurred" type="matrix" values="1 0 0 0 0  0 1 0 0 0  0 0 1 0 0  0 0 0 28 -12"/>
    </filter>
    <mask id="horse-silhouette" maskUnits="userSpaceOnUse" maskContentUnits="userSpaceOnUse" x="0" y="0" width="900" height="1000">
      <path id="silhouette-fill" d="M127.56 267.69 L127.57 267.72 L130.06 279.22 L130.09 279.38 L131.09 292.90 L131.10 292.98 L135.12 313.10 L135.13 313.18 L137.15 327.77 L137.15 327.81 L140.17 342.41 L140.19 342.47 L146.23 361.10 L146.24 361.13 L146.26 361.15 L152.79 365.65 L152.81 365.67 L152.84 365.67 L161.86 365.17 L161.94 365.16 L169.45 363.66 L169.48 363.65 L169.49 363.62 L172.51 349.00 L172.51 349.00 L174.44 338.94 L174.47 338.82 L174.51 338.71 L174.56 338.61 L174.62 338.51 L174.69 338.41 L174.77 338.32 L174.85 338.24 L174.95 338.17 L175.05 338.11 L175.15 338.06 L175.26 338.02 L175.38 337.99 L175.50 337.97 L175.61 337.97 L175.73 337.97 L175.85 337.99 L175.96 338.02 L176.07 338.05 L176.18 338.10 L176.28 338.16 L176.38 338.23 L176.46 338.31 L176.54 338.40 L176.61 338.49 L176.68 338.60 L176.73 338.70 L182.09 351.50 L182.12 351.56 L203.31 389.38 L203.34 389.43 L229.36 426.48 L229.43 426.58 L229.48 426.69 L229.52 426.81 L229.56 426.93 L229.57 427.05 L229.58 427.17 L229.58 434.84 L229.58 434.87 L229.59 434.90 L237.59 456.40 L237.63 456.52 L237.66 456.64 L237.67 456.77 L238.67 478.27 L238.67 478.30 L238.69 478.32 L248.75 491.92 L248.77 491.94 L248.79 491.95 L256.83 496.21 L256.94 496.27 L257.03 496.35 L257.13 496.43 L257.21 496.52 L257.28 496.62 L257.34 496.73 L257.39 496.84 L257.43 496.96 L257.45 497.08 L263.41 534.78 L263.42 534.96 L263.93 575.68 L263.93 575.78 L263.92 575.87 L261.91 589.39 L261.91 589.42 L261.91 589.45 L263.92 603.99 L263.93 604.15 L263.93 619.18 L263.93 619.26 L261.98 650.42 L261.97 650.54 L261.94 650.66 L261.90 650.78 L261.85 650.89 L261.79 650.99 L261.72 651.09 L261.64 651.18 L261.55 651.27 L261.46 651.34 L261.35 651.40 L261.24 651.46 L261.13 651.50 L261.01 651.53 L260.91 651.54 L260.90 651.54 L260.89 651.57 L255.90 679.52 L255.87 679.64 L255.83 679.76 L255.78 679.87 L255.71 679.97 L255.64 680.07 L253.35 682.83 L253.30 682.89 L247.40 692.23 L247.34 692.32 L247.28 692.40 L247.20 692.48 L247.12 692.54 L247.03 692.60 L237.68 698.50 L237.67 698.52 L237.66 698.52 L237.66 698.52 L237.64 698.54 L231.67 706.76 L231.60 706.85 L231.52 706.93 L222.28 715.67 L222.26 715.69 L222.25 715.72 L220.75 719.19 L220.74 719.22 L220.77 719.23 L227.03 722.25 L227.06 722.26 L227.09 722.26 L249.74 723.27 L249.78 723.27 L249.81 723.26 L258.85 721.51 L258.88 721.50 L258.90 721.48 L265.17 715.46 L265.19 715.44 L265.17 715.41 L265.10 715.30 L265.04 715.19 L265.00 715.08 L264.97 714.96 L264.95 714.83 L264.94 714.71 L264.94 709.65 L264.94 709.61 L264.45 703.32 L264.45 703.19 L264.46 703.06 L264.48 702.94 L264.52 702.82 L266.32 697.88 L266.36 697.76 L266.43 697.65 L266.50 697.55 L266.58 697.45 L266.68 697.37 L266.78 697.29 L268.35 696.24 L268.45 696.18 L268.56 696.13 L268.67 696.09 L268.79 696.06 L268.91 696.05 L269.03 696.04 L269.15 696.05 L269.26 696.07 L269.38 696.10 L269.49 696.14 L269.60 696.19 L269.70 696.26 L269.80 696.33 L269.88 696.41 L269.96 696.50 L270.03 696.60 L270.09 696.71 L271.49 699.50 L271.50 699.53 L271.52 699.51 L275.52 694.50 L275.55 694.46 L279.56 688.44 L279.58 688.42 L279.59 688.39 L283.11 677.32 L283.12 677.30 L283.12 677.27 L283.62 666.71 L283.62 666.69 L283.62 652.08 L283.62 652.05 L283.58 652.02 L283.49 651.94 L283.41 651.85 L283.34 651.75 L283.29 651.64 L283.24 651.53 L283.20 651.42 L283.17 651.30 L283.16 651.18 L283.16 651.06 L284.62 614.43 L284.63 614.30 L284.66 614.18 L284.69 614.06 L284.75 613.94 L287.65 608.13 L287.66 608.11 L287.67 608.08 L291.70 593.99 L291.71 593.97 L291.71 593.94 L292.21 574.88 L292.22 574.77 L292.23 574.66 L295.74 558.65 L295.75 558.57 L297.10 539.68 L297.11 539.56 L297.14 539.45 L297.17 539.34 L297.22 539.23 L297.28 539.13 L297.34 539.03 L297.42 538.95 L297.50 538.86 L297.59 538.79 L297.69 538.73 L297.79 538.67 L297.90 538.63 L298.01 538.60 L298.13 538.58 L298.24 538.57 L298.36 538.57 L298.47 538.58 L298.59 538.60 L298.70 538.63 L298.81 538.68 L298.91 538.73 L299.01 538.80 L299.10 538.87 L299.18 538.95 L299.25 539.04 L299.32 539.14 L299.37 539.24 L299.42 539.35 L299.46 539.46 L299.48 539.57 L304.33 569.70 L304.33 569.74 L310.38 597.72 L310.39 597.75 L310.41 597.77 L316.54 607.09 L316.60 607.20 L316.65 607.31 L316.69 607.42 L316.72 607.54 L316.73 607.66 L320.24 651.26 L320.24 651.29 L320.26 651.32 L320.31 651.42 L320.35 651.52 L320.38 651.63 L324.67 669.48 L324.69 669.60 L324.70 669.72 L324.70 669.84 L324.69 669.96 L324.66 670.08 L324.62 670.20 L324.57 670.31 L324.51 670.41 L322.03 674.24 L322.00 674.30 L313.18 691.43 L313.12 691.54 L313.05 691.64 L312.97 691.73 L312.88 691.82 L312.78 691.89 L312.67 691.95 L312.67 691.95 L312.65 691.97 L304.08 703.06 L304.08 703.06 L297.03 712.39 L297.01 712.41 L297.03 712.43 L299.77 715.16 L299.79 715.18 L299.82 715.18 L322.76 714.93 L322.78 714.93 L328.29 714.93 L328.32 714.93 L328.34 714.91 L331.59 710.41 L331.61 710.39 L331.61 710.38 L331.63 710.27 L331.65 710.15 L331.69 710.04 L331.74 709.94 L331.80 709.84 L337.90 700.56 L337.92 700.54 L337.91 700.51 L335.91 696.77 L335.89 696.73 L333.82 693.51 L333.76 693.41 L333.71 693.30 L333.68 693.19 L333.65 693.08 L333.63 692.96 L333.63 692.85 L333.64 692.73 L333.65 692.61 L333.68 692.50 L333.72 692.39 L333.77 692.29 L333.83 692.19 L333.90 692.10 L333.98 692.01 L334.07 691.93 L334.16 691.86 L334.26 691.80 L334.36 691.75 L334.47 691.71 L334.58 691.68 L334.70 691.67 L334.82 691.66 L334.93 691.66 L335.05 691.68 L335.16 691.70 L338.65 692.70 L338.68 692.71 L338.68 692.68 L339.17 687.48 L339.20 687.32 L340.42 682.17 L340.47 682.03 L341.95 678.10 L341.98 678.02 L346.75 667.48 L346.76 667.45 L346.76 667.42 L346.76 659.40 L346.76 659.37 L346.75 659.34 L342.99 651.08 L342.96 651.00 L339.00 640.37 L338.96 640.24 L338.94 640.11 L338.92 639.98 L338.68 631.62 L338.68 631.59 L338.67 631.56 L335.91 621.27 L335.90 621.24 L335.87 621.20 L335.86 621.18 L335.80 621.08 L335.74 620.97 L335.70 620.86 L335.67 620.75 L335.66 620.63 L335.65 620.51 L335.65 606.42 L335.66 606.26 L337.16 594.75 L337.16 594.72 L337.15 594.69 L335.65 588.92 L335.65 588.90 L332.39 575.15 L332.37 575.03 L332.36 574.91 L331.35 547.00 L331.35 546.98 L328.92 515.61 L328.92 515.49 L328.93 515.37 L328.95 515.25 L328.98 515.14 L329.02 515.03 L329.08 514.92 L329.14 514.82 L329.22 514.72 L329.30 514.64 L329.39 514.56 L329.49 514.49 L329.60 514.44 L329.71 514.39 L329.82 514.36 L329.94 514.33 L330.06 514.32 L330.18 514.32 L346.69 515.17 L346.83 515.18 L379.56 520.72 L379.59 520.73 L379.62 520.73 L424.50 518.20 L424.54 518.20 L424.57 518.19 L459.36 507.61 L459.42 507.59 L473.00 502.05 L473.03 502.04 L473.05 502.02 L482.60 492.97 L482.62 492.95 L482.63 492.93 L493.63 478.44 L493.71 478.35 L493.79 478.27 L493.88 478.20 L509.18 467.09 L509.28 467.02 L509.39 466.96 L509.50 466.92 L509.62 466.89 L509.75 466.87 L509.87 466.86 L509.99 466.86 L510.11 466.88 L521.73 469.18 L521.84 469.21 L521.95 469.25 L522.06 469.30 L522.16 469.36 L522.25 469.43 L529.21 475.10 L529.29 475.18 L529.37 475.26 L529.44 475.36 L529.50 475.45 L529.55 475.56 L529.59 475.67 L529.62 475.78 L529.64 475.89 L529.65 476.01 L529.64 476.12 L529.63 476.24 L529.61 476.35 L529.57 476.46 L529.52 476.57 L529.47 476.67 L529.40 476.76 L532.28 482.38 L535.07 487.81 L537.77 493.06 L540.37 498.11 L542.87 502.98 L545.29 507.66 L547.61 512.16 L549.83 516.47 L565.18 528.03 L565.20 528.05 L565.23 528.05 L565.34 528.06 L565.45 528.08 L565.56 528.11 L565.67 528.16 L565.77 528.21 L565.87 528.27 L565.96 528.34 L566.04 528.42 L566.12 528.51 L566.18 528.60 L566.24 528.70 L586.10 567.09 L586.15 567.20 L586.19 567.32 L590.71 583.35 L590.71 583.37 L590.73 583.41 L590.76 583.51 L590.77 583.62 L590.78 583.72 L590.79 583.83 L590.78 583.93 L587.97 606.01 L587.95 606.12 L587.93 606.22 L587.89 606.32 L580.45 624.38 L580.45 624.40 L571.23 649.54 L571.19 649.63 L571.14 649.73 L571.08 649.82 L571.02 649.91 L553.68 670.08 L553.66 670.10 L553.67 670.13 L557.94 682.21 L557.95 682.24 L557.98 682.25 L574.71 687.95 L574.74 687.96 L574.77 687.95 L584.35 685.47 L584.38 685.46 L584.39 685.43 L596.15 665.12 L596.16 665.10 L596.17 665.07 L598.63 655.87 L598.67 655.76 L598.72 655.65 L598.77 655.55 L598.84 655.46 L598.92 655.37 L599.00 655.28 L599.09 655.21 L599.19 655.15 L599.30 655.09 L599.41 655.05 L599.52 655.02 L599.63 655.00 L599.75 654.99 L599.87 654.99 L599.99 655.00 L600.10 655.03 L600.21 655.06 L600.32 655.11 L600.43 655.17 L600.52 655.23 L600.61 655.31 L600.69 655.39 L600.77 655.49 L600.83 655.59 L600.88 655.69 L600.93 655.80 L600.96 655.91 L600.98 656.03 L600.99 656.15 L601.32 666.17 L601.32 666.21 L601.32 680.65 L601.31 680.78 L601.29 680.90 L601.26 681.02 L596.79 694.92 L596.75 695.04 L591.23 707.58 L591.22 707.61 L591.23 707.64 L591.27 707.75 L591.29 707.87 L591.30 707.99 L591.30 708.11 L591.29 708.23 L591.27 708.34 L591.23 708.46 L591.18 708.57 L591.13 708.67 L588.70 712.64 L588.68 712.68 L581.63 726.52 L581.62 726.55 L581.65 726.56 L589.42 729.32 L589.45 729.33 L589.48 729.33 L609.62 729.07 L609.65 729.07 L609.67 729.05 L614.86 722.21 L614.94 722.12 L615.02 722.03 L615.12 721.96 L615.22 721.89 L615.32 721.84 L615.43 721.80 L615.55 721.76 L615.67 721.74 L615.78 721.73 L623.76 721.50 L623.79 721.50 L623.81 721.49 L631.09 717.72 L631.12 717.71 L631.13 717.68 L633.38 711.68 L633.39 711.65 L633.39 711.62 L632.91 706.16 L632.90 706.04 L632.91 705.92 L632.93 705.80 L632.96 705.68 L633.01 705.57 L633.06 705.46 L633.13 705.36 L633.16 705.31 L637.66 698.28 L637.68 698.26 L637.69 698.23 L639.19 690.59 L639.20 690.56 L639.19 690.54 L639.17 690.42 L639.16 690.29 L639.16 690.16 L639.17 690.04 L639.20 689.91 L639.21 689.90 L643.73 670.77 L643.74 670.74 L643.74 670.71 L638.69 628.85 L638.69 628.82 L638.68 628.78 L638.67 628.76 L638.65 628.64 L638.63 628.53 L638.63 628.42 L638.64 628.30 L638.65 628.19 L638.68 628.08 L638.69 628.06 L638.69 628.03 L637.18 585.42 L637.18 585.34 L637.68 567.48 L637.68 567.45 L637.66 567.43 L629.59 559.60 L629.51 559.52 L629.45 559.44 L629.39 559.35 L629.34 559.25 L629.30 559.15 L629.26 559.05 L627.39 552.00 L627.36 551.88 L627.35 551.75 L627.35 551.62 L627.36 551.50 L627.39 551.37 L629.01 545.48 L629.02 545.46 L629.02 545.44 L638.31 464.76 L638.31 464.72 L642.58 437.64 L642.59 437.56 L642.95 409.42 L642.95 409.39 L642.94 409.37 L637.24 386.18 L637.24 386.16 L632.60 370.13 L632.59 370.10 L632.57 370.08 L621.54 356.19 L621.52 356.17 L621.49 356.16 L599.77 344.41 L599.66 344.34 L599.56 344.26 L599.46 344.17 L599.38 344.07 L599.33 344.00 L599.33 344.00 L599.30 343.95 L599.27 343.94 L566.49 334.37 L566.45 334.36 L542.76 329.32 L542.73 329.31 L542.70 329.31 L510.43 332.34 L510.40 332.34 L510.38 332.35 L485.20 341.41 L485.10 341.44 L455.90 348.99 L455.80 349.01 L421.17 355.03 L421.06 355.04 L420.94 355.05 L420.82 355.04 L379.79 350.03 L379.66 350.01 L379.53 349.97 L379.41 349.92 L358.95 339.94 L358.82 339.87 L346.21 331.70 L346.19 331.68 L346.16 331.68 L332.17 330.25 L332.15 330.25 L314.56 328.81 L314.43 328.79 L314.31 328.76 L297.27 323.59 L297.15 323.55 L297.04 323.50 L296.94 323.43 L287.20 316.73 L287.12 316.69 L277.09 311.73 L277.06 311.71 L277.03 311.70 L267.05 309.42 L266.94 309.39 L266.84 309.35 L266.75 309.31 L266.65 309.25 L266.57 309.19 L256.38 301.04 L256.35 301.02 L256.32 301.01 L242.78 294.49 L242.64 294.42 L221.07 280.36 L220.99 280.31 L220.92 280.24 L185.15 247.50 L185.13 247.48 L185.08 247.47 L184.97 247.45 L184.86 247.41 L184.76 247.36 L184.67 247.31 L184.57 247.24 L183.74 246.60 L183.65 246.52 L183.56 246.44 L183.49 246.35 L183.43 246.25 L183.37 246.15 L183.33 246.04 L183.30 245.93 L183.28 245.81 L183.27 245.70 L183.27 245.58 L183.28 245.46 L183.30 245.35 L183.34 245.24 L183.38 245.13 L186.13 239.42 L186.14 239.40 L186.14 239.37 L189.16 223.77 L189.17 223.74 L189.16 223.71 L184.64 209.13 L184.63 209.10 L184.61 209.07 L178.59 200.53 L178.57 200.51 L178.56 200.54 L176.12 208.34 L176.07 208.46 L176.02 208.58 L175.95 208.68 L175.87 208.78 L172.02 213.12 L172.00 213.14 L172.00 213.17 L172.23 235.33 L172.22 235.44 L172.21 235.56 L172.18 235.67 L172.14 235.78 L172.09 235.89 L172.03 235.99 L171.97 236.08 L171.89 236.17 L171.81 236.25 L171.71 236.32 L171.61 236.38 L171.51 236.44 L171.40 236.48 L171.29 236.51 L171.17 236.53 L171.06 236.54 L170.94 236.53 L170.83 236.52 L170.71 236.50 L170.60 236.46 L170.49 236.41 L170.39 236.36 L170.30 236.29 L166.47 233.36 L166.45 233.34 L166.42 233.33 L158.39 230.83 L158.36 230.82 L158.33 230.83 L147.80 232.83 L147.68 232.85 L147.56 232.85 L147.44 232.85 L147.32 232.83 L147.21 232.80 L147.10 232.76 L146.99 232.71 L146.89 232.64 L146.80 232.57 L146.71 232.49 L146.63 232.40 L146.56 232.31 L146.50 232.20 L146.46 232.10 L146.42 231.98 L146.39 231.87 L144.73 222.76 L144.73 222.73 L144.72 222.71 L138.19 211.67 L138.14 211.57 L134.64 204.08 L134.63 204.05 L134.62 204.08 L129.59 213.61 L129.58 213.64 L129.58 213.67 L128.06 229.27 L128.06 229.30 L128.07 229.33 L132.09 240.38 L132.10 240.41 L132.13 240.42 L136.08 242.40 L136.18 242.46 L136.28 242.53 L136.37 242.61 L136.45 242.70 L136.53 242.79 L136.59 242.89 L136.64 243.00 L136.68 243.11 L136.72 243.22 L136.74 243.34 L136.74 243.46 L136.74 243.58 L136.72 243.70 L136.70 243.81 L136.66 243.92 L136.61 244.03 L130.61 255.53 L130.59 255.56 L130.58 255.59 L127.57 267.66 L127.56 267.69 Z" fill="white"/>
    </mask>
    <path id="silhouette" d="M127.56 267.69 L127.57 267.72 L130.06 279.22 L130.09 279.38 L131.09 292.90 L131.10 292.98 L135.12 313.10 L135.13 313.18 L137.15 327.77 L137.15 327.81 L140.17 342.41 L140.19 342.47 L146.23 361.10 L146.24 361.13 L146.26 361.15 L152.79 365.65 L152.81 365.67 L152.84 365.67 L161.86 365.17 L161.94 365.16 L169.45 363.66 L169.48 363.65 L169.49 363.62 L172.51 349.00 L172.51 349.00 L174.44 338.94 L174.47 338.82 L174.51 338.71 L174.56 338.61 L174.62 338.51 L174.69 338.41 L174.77 338.32 L174.85 338.24 L174.95 338.17 L175.05 338.11 L175.15 338.06 L175.26 338.02 L175.38 337.99 L175.50 337.97 L175.61 337.97 L175.73 337.97 L175.85 337.99 L175.96 338.02 L176.07 338.05 L176.18 338.10 L176.28 338.16 L176.38 338.23 L176.46 338.31 L176.54 338.40 L176.61 338.49 L176.68 338.60 L176.73 338.70 L182.09 351.50 L182.12 351.56 L203.31 389.38 L203.34 389.43 L229.36 426.48 L229.43 426.58 L229.48 426.69 L229.52 426.81 L229.56 426.93 L229.57 427.05 L229.58 427.17 L229.58 434.84 L229.58 434.87 L229.59 434.90 L237.59 456.40 L237.63 456.52 L237.66 456.64 L237.67 456.77 L238.67 478.27 L238.67 478.30 L238.69 478.32 L248.75 491.92 L248.77 491.94 L248.79 491.95 L256.83 496.21 L256.94 496.27 L257.03 496.35 L257.13 496.43 L257.21 496.52 L257.28 496.62 L257.34 496.73 L257.39 496.84 L257.43 496.96 L257.45 497.08 L263.41 534.78 L263.42 534.96 L263.93 575.68 L263.93 575.78 L263.92 575.87 L261.91 589.39 L261.91 589.42 L261.91 589.45 L263.92 603.99 L263.93 604.15 L263.93 619.18 L263.93 619.26 L261.98 650.42 L261.97 650.54 L261.94 650.66 L261.90 650.78 L261.85 650.89 L261.79 650.99 L261.72 651.09 L261.64 651.18 L261.55 651.27 L261.46 651.34 L261.35 651.40 L261.24 651.46 L261.13 651.50 L261.01 651.53 L260.91 651.54 L260.90 651.54 L260.89 651.57 L255.90 679.52 L255.87 679.64 L255.83 679.76 L255.78 679.87 L255.71 679.97 L255.64 680.07 L253.35 682.83 L253.30 682.89 L247.40 692.23 L247.34 692.32 L247.28 692.40 L247.20 692.48 L247.12 692.54 L247.03 692.60 L237.68 698.50 L237.67 698.52 L237.66 698.52 L237.66 698.52 L237.64 698.54 L231.67 706.76 L231.60 706.85 L231.52 706.93 L222.28 715.67 L222.26 715.69 L222.25 715.72 L220.75 719.19 L220.74 719.22 L220.77 719.23 L227.03 722.25 L227.06 722.26 L227.09 722.26 L249.74 723.27 L249.78 723.27 L249.81 723.26 L258.85 721.51 L258.88 721.50 L258.90 721.48 L265.17 715.46 L265.19 715.44 L265.17 715.41 L265.10 715.30 L265.04 715.19 L265.00 715.08 L264.97 714.96 L264.95 714.83 L264.94 714.71 L264.94 709.65 L264.94 709.61 L264.45 703.32 L264.45 703.19 L264.46 703.06 L264.48 702.94 L264.52 702.82 L266.32 697.88 L266.36 697.76 L266.43 697.65 L266.50 697.55 L266.58 697.45 L266.68 697.37 L266.78 697.29 L268.35 696.24 L268.45 696.18 L268.56 696.13 L268.67 696.09 L268.79 696.06 L268.91 696.05 L269.03 696.04 L269.15 696.05 L269.26 696.07 L269.38 696.10 L269.49 696.14 L269.60 696.19 L269.70 696.26 L269.80 696.33 L269.88 696.41 L269.96 696.50 L270.03 696.60 L270.09 696.71 L271.49 699.50 L271.50 699.53 L271.52 699.51 L275.52 694.50 L275.55 694.46 L279.56 688.44 L279.58 688.42 L279.59 688.39 L283.11 677.32 L283.12 677.30 L283.12 677.27 L283.62 666.71 L283.62 666.69 L283.62 652.08 L283.62 652.05 L283.58 652.02 L283.49 651.94 L283.41 651.85 L283.34 651.75 L283.29 651.64 L283.24 651.53 L283.20 651.42 L283.17 651.30 L283.16 651.18 L283.16 651.06 L284.62 614.43 L284.63 614.30 L284.66 614.18 L284.69 614.06 L284.75 613.94 L287.65 608.13 L287.66 608.11 L287.67 608.08 L291.70 593.99 L291.71 593.97 L291.71 593.94 L292.21 574.88 L292.22 574.77 L292.23 574.66 L295.74 558.65 L295.75 558.57 L297.10 539.68 L297.11 539.56 L297.14 539.45 L297.17 539.34 L297.22 539.23 L297.28 539.13 L297.34 539.03 L297.42 538.95 L297.50 538.86 L297.59 538.79 L297.69 538.73 L297.79 538.67 L297.90 538.63 L298.01 538.60 L298.13 538.58 L298.24 538.57 L298.36 538.57 L298.47 538.58 L298.59 538.60 L298.70 538.63 L298.81 538.68 L298.91 538.73 L299.01 538.80 L299.10 538.87 L299.18 538.95 L299.25 539.04 L299.32 539.14 L299.37 539.24 L299.42 539.35 L299.46 539.46 L299.48 539.57 L304.33 569.70 L304.33 569.74 L310.38 597.72 L310.39 597.75 L310.41 597.77 L316.54 607.09 L316.60 607.20 L316.65 607.31 L316.69 607.42 L316.72 607.54 L316.73 607.66 L320.24 651.26 L320.24 651.29 L320.26 651.32 L320.31 651.42 L320.35 651.52 L320.38 651.63 L324.67 669.48 L324.69 669.60 L324.70 669.72 L324.70 669.84 L324.69 669.96 L324.66 670.08 L324.62 670.20 L324.57 670.31 L324.51 670.41 L322.03 674.24 L322.00 674.30 L313.18 691.43 L313.12 691.54 L313.05 691.64 L312.97 691.73 L312.88 691.82 L312.78 691.89 L312.67 691.95 L312.67 691.95 L312.65 691.97 L304.08 703.06 L304.08 703.06 L297.03 712.39 L297.01 712.41 L297.03 712.43 L299.77 715.16 L299.79 715.18 L299.82 715.18 L322.76 714.93 L322.78 714.93 L328.29 714.93 L328.32 714.93 L328.34 714.91 L331.59 710.41 L331.61 710.39 L331.61 710.38 L331.63 710.27 L331.65 710.15 L331.69 710.04 L331.74 709.94 L331.80 709.84 L337.90 700.56 L337.92 700.54 L337.91 700.51 L335.91 696.77 L335.89 696.73 L333.82 693.51 L333.76 693.41 L333.71 693.30 L333.68 693.19 L333.65 693.08 L333.63 692.96 L333.63 692.85 L333.64 692.73 L333.65 692.61 L333.68 692.50 L333.72 692.39 L333.77 692.29 L333.83 692.19 L333.90 692.10 L333.98 692.01 L334.07 691.93 L334.16 691.86 L334.26 691.80 L334.36 691.75 L334.47 691.71 L334.58 691.68 L334.70 691.67 L334.82 691.66 L334.93 691.66 L335.05 691.68 L335.16 691.70 L338.65 692.70 L338.68 692.71 L338.68 692.68 L339.17 687.48 L339.20 687.32 L340.42 682.17 L340.47 682.03 L341.95 678.10 L341.98 678.02 L346.75 667.48 L346.76 667.45 L346.76 667.42 L346.76 659.40 L346.76 659.37 L346.75 659.34 L342.99 651.08 L342.96 651.00 L339.00 640.37 L338.96 640.24 L338.94 640.11 L338.92 639.98 L338.68 631.62 L338.68 631.59 L338.67 631.56 L335.91 621.27 L335.90 621.24 L335.87 621.20 L335.86 621.18 L335.80 621.08 L335.74 620.97 L335.70 620.86 L335.67 620.75 L335.66 620.63 L335.65 620.51 L335.65 606.42 L335.66 606.26 L337.16 594.75 L337.16 594.72 L337.15 594.69 L335.65 588.92 L335.65 588.90 L332.39 575.15 L332.37 575.03 L332.36 574.91 L331.35 547.00 L331.35 546.98 L328.92 515.61 L328.92 515.49 L328.93 515.37 L328.95 515.25 L328.98 515.14 L329.02 515.03 L329.08 514.92 L329.14 514.82 L329.22 514.72 L329.30 514.64 L329.39 514.56 L329.49 514.49 L329.60 514.44 L329.71 514.39 L329.82 514.36 L329.94 514.33 L330.06 514.32 L330.18 514.32 L346.69 515.17 L346.83 515.18 L379.56 520.72 L379.59 520.73 L379.62 520.73 L424.50 518.20 L424.54 518.20 L424.57 518.19 L459.36 507.61 L459.42 507.59 L473.00 502.05 L473.03 502.04 L473.05 502.02 L482.60 492.97 L482.62 492.95 L482.63 492.93 L493.63 478.44 L493.71 478.35 L493.79 478.27 L493.88 478.20 L509.18 467.09 L509.28 467.02 L509.39 466.96 L509.50 466.92 L509.62 466.89 L509.75 466.87 L509.87 466.86 L509.99 466.86 L510.11 466.88 L521.73 469.18 L521.84 469.21 L521.95 469.25 L522.06 469.30 L522.16 469.36 L522.25 469.43 L529.21 475.10 L529.29 475.18 L529.37 475.26 L529.44 475.36 L529.50 475.45 L529.55 475.56 L529.59 475.67 L529.62 475.78 L529.64 475.89 L529.65 476.01 L529.64 476.12 L529.63 476.24 L529.61 476.35 L529.57 476.46 L529.52 476.57 L529.47 476.67 L529.40 476.76 L532.28 482.38 L535.07 487.81 L537.77 493.06 L540.37 498.11 L542.87 502.98 L545.29 507.66 L547.61 512.16 L549.83 516.47 L565.18 528.03 L565.20 528.05 L565.23 528.05 L565.34 528.06 L565.45 528.08 L565.56 528.11 L565.67 528.16 L565.77 528.21 L565.87 528.27 L565.96 528.34 L566.04 528.42 L566.12 528.51 L566.18 528.60 L566.24 528.70 L586.10 567.09 L586.15 567.20 L586.19 567.32 L590.71 583.35 L590.71 583.37 L590.73 583.41 L590.76 583.51 L590.77 583.62 L590.78 583.72 L590.79 583.83 L590.78 583.93 L587.97 606.01 L587.95 606.12 L587.93 606.22 L587.89 606.32 L580.45 624.38 L580.45 624.40 L571.23 649.54 L571.19 649.63 L571.14 649.73 L571.08 649.82 L571.02 649.91 L553.68 670.08 L553.66 670.10 L553.67 670.13 L557.94 682.21 L557.95 682.24 L557.98 682.25 L574.71 687.95 L574.74 687.96 L574.77 687.95 L584.35 685.47 L584.38 685.46 L584.39 685.43 L596.15 665.12 L596.16 665.10 L596.17 665.07 L598.63 655.87 L598.67 655.76 L598.72 655.65 L598.77 655.55 L598.84 655.46 L598.92 655.37 L599.00 655.28 L599.09 655.21 L599.19 655.15 L599.30 655.09 L599.41 655.05 L599.52 655.02 L599.63 655.00 L599.75 654.99 L599.87 654.99 L599.99 655.00 L600.10 655.03 L600.21 655.06 L600.32 655.11 L600.43 655.17 L600.52 655.23 L600.61 655.31 L600.69 655.39 L600.77 655.49 L600.83 655.59 L600.88 655.69 L600.93 655.80 L600.96 655.91 L600.98 656.03 L600.99 656.15 L601.32 666.17 L601.32 666.21 L601.32 680.65 L601.31 680.78 L601.29 680.90 L601.26 681.02 L596.79 694.92 L596.75 695.04 L591.23 707.58 L591.22 707.61 L591.23 707.64 L591.27 707.75 L591.29 707.87 L591.30 707.99 L591.30 708.11 L591.29 708.23 L591.27 708.34 L591.23 708.46 L591.18 708.57 L591.13 708.67 L588.70 712.64 L588.68 712.68 L581.63 726.52 L581.62 726.55 L581.65 726.56 L589.42 729.32 L589.45 729.33 L589.48 729.33 L609.62 729.07 L609.65 729.07 L609.67 729.05 L614.86 722.21 L614.94 722.12 L615.02 722.03 L615.12 721.96 L615.22 721.89 L615.32 721.84 L615.43 721.80 L615.55 721.76 L615.67 721.74 L615.78 721.73 L623.76 721.50 L623.79 721.50 L623.81 721.49 L631.09 717.72 L631.12 717.71 L631.13 717.68 L633.38 711.68 L633.39 711.65 L633.39 711.62 L632.91 706.16 L632.90 706.04 L632.91 705.92 L632.93 705.80 L632.96 705.68 L633.01 705.57 L633.06 705.46 L633.13 705.36 L633.16 705.31 L637.66 698.28 L637.68 698.26 L637.69 698.23 L639.19 690.59 L639.20 690.56 L639.19 690.54 L639.17 690.42 L639.16 690.29 L639.16 690.16 L639.17 690.04 L639.20 689.91 L639.21 689.90 L643.73 670.77 L643.74 670.74 L643.74 670.71 L638.69 628.85 L638.69 628.82 L638.68 628.78 L638.67 628.76 L638.65 628.64 L638.63 628.53 L638.63 628.42 L638.64 628.30 L638.65 628.19 L638.68 628.08 L638.69 628.06 L638.69 628.03 L637.18 585.42 L637.18 585.34 L637.68 567.48 L637.68 567.45 L637.66 567.43 L629.59 559.60 L629.51 559.52 L629.45 559.44 L629.39 559.35 L629.34 559.25 L629.30 559.15 L629.26 559.05 L627.39 552.00 L627.36 551.88 L627.35 551.75 L627.35 551.62 L627.36 551.50 L627.39 551.37 L629.01 545.48 L629.02 545.46 L629.02 545.44 L638.31 464.76 L638.31 464.72 L642.58 437.64 L642.59 437.56 L642.95 409.42 L642.95 409.39 L642.94 409.37 L637.24 386.18 L637.24 386.16 L632.60 370.13 L632.59 370.10 L632.57 370.08 L621.54 356.19 L621.52 356.17 L621.49 356.16 L599.77 344.41 L599.66 344.34 L599.56 344.26 L599.46 344.17 L599.38 344.07 L599.33 344.00 L599.33 344.00 L599.30 343.95 L599.27 343.94 L566.49 334.37 L566.45 334.36 L542.76 329.32 L542.73 329.31 L542.70 329.31 L510.43 332.34 L510.40 332.34 L510.38 332.35 L485.20 341.41 L485.10 341.44 L455.90 348.99 L455.80 349.01 L421.17 355.03 L421.06 355.04 L420.94 355.05 L420.82 355.04 L379.79 350.03 L379.66 350.01 L379.53 349.97 L379.41 349.92 L358.95 339.94 L358.82 339.87 L346.21 331.70 L346.19 331.68 L346.16 331.68 L332.17 330.25 L332.15 330.25 L314.56 328.81 L314.43 328.79 L314.31 328.76 L297.27 323.59 L297.15 323.55 L297.04 323.50 L296.94 323.43 L287.20 316.73 L287.12 316.69 L277.09 311.73 L277.06 311.71 L277.03 311.70 L267.05 309.42 L266.94 309.39 L266.84 309.35 L266.75 309.31 L266.65 309.25 L266.57 309.19 L256.38 301.04 L256.35 301.02 L256.32 301.01 L242.78 294.49 L242.64 294.42 L221.07 280.36 L220.99 280.31 L220.92 280.24 L185.15 247.50 L185.13 247.48 L185.08 247.47 L184.97 247.45 L184.86 247.41 L184.76 247.36 L184.67 247.31 L184.57 247.24 L183.74 246.60 L183.65 246.52 L183.56 246.44 L183.49 246.35 L183.43 246.25 L183.37 246.15 L183.33 246.04 L183.30 245.93 L183.28 245.81 L183.27 245.70 L183.27 245.58 L183.28 245.46 L183.30 245.35 L183.34 245.24 L183.38 245.13 L186.13 239.42 L186.14 239.40 L186.14 239.37 L189.16 223.77 L189.17 223.74 L189.16 223.71 L184.64 209.13 L184.63 209.10 L184.61 209.07 L178.59 200.53 L178.57 200.51 L178.56 200.54 L176.12 208.34 L176.07 208.46 L176.02 208.58 L175.95 208.68 L175.87 208.78 L172.02 213.12 L172.00 213.14 L172.00 213.17 L172.23 235.33 L172.22 235.44 L172.21 235.56 L172.18 235.67 L172.14 235.78 L172.09 235.89 L172.03 235.99 L171.97 236.08 L171.89 236.17 L171.81 236.25 L171.71 236.32 L171.61 236.38 L171.51 236.44 L171.40 236.48 L171.29 236.51 L171.17 236.53 L171.06 236.54 L170.94 236.53 L170.83 236.52 L170.71 236.50 L170.60 236.46 L170.49 236.41 L170.39 236.36 L170.30 236.29 L166.47 233.36 L166.45 233.34 L166.42 233.33 L158.39 230.83 L158.36 230.82 L158.33 230.83 L147.80 232.83 L147.68 232.85 L147.56 232.85 L147.44 232.85 L147.32 232.83 L147.21 232.80 L147.10 232.76 L146.99 232.71 L146.89 232.64 L146.80 232.57 L146.71 232.49 L146.63 232.40 L146.56 232.31 L146.50 232.20 L146.46 232.10 L146.42 231.98 L146.39 231.87 L144.73 222.76 L144.73 222.73 L144.72 222.71 L138.19 211.67 L138.14 211.57 L134.64 204.08 L134.63 204.05 L134.62 204.08 L129.59 213.61 L129.58 213.64 L129.58 213.67 L128.06 229.27 L128.06 229.30 L128.07 229.33 L132.09 240.38 L132.10 240.41 L132.13 240.42 L136.08 242.40 L136.18 242.46 L136.28 242.53 L136.37 242.61 L136.45 242.70 L136.53 242.79 L136.59 242.89 L136.64 243.00 L136.68 243.11 L136.72 243.22 L136.74 243.34 L136.74 243.46 L136.74 243.58 L136.72 243.70 L136.70 243.81 L136.66 243.92 L136.61 244.03 L130.61 255.53 L130.59 255.56 L130.58 255.59 L127.57 267.66 L127.56 267.69 Z"/>
    <symbol id="spot-blot" overflow="visible"><path d="M-18,-2 C-26,-16 -8,-24 2,-16 C14,-26 30,-10 22,2 C28,16 10,24 -2,16 C-18,22 -28,8 -18,-2 Z"/></symbol>
    <symbol id="spot-bean" overflow="visible"><path d="M-14,4 C-22,-8 -6,-18 6,-12 C16,-18 26,-4 16,8 C20,16 4,18 -6,12 C-18,16 -22,10 -14,4 Z"/></symbol>
    <symbol id="spot-comma" overflow="visible"><path d="M-2,-16 C10,-20 18,-8 12,0 C8,8 0,10 -4,4 C-12,12 -22,4 -16,-4 C-22,-14 -12,-18 -2,-16 Z"/></symbol>
    <symbol id="spot-peanut" overflow="visible"><path d="M-22,2 C-26,-10 -14,-14 -6,-8 C2,-16 14,-12 16,-4 C26,-6 26,8 16,12 C6,18 -6,10 -12,12 C-24,16 -28,8 -22,2 Z"/></symbol>
    <symbol id="spot-speck" overflow="visible"><path d="M-4,-1 C-6,-5 0,-7 3,-4 C6,-6 8,0 5,3 C6,6 0,7 -3,4 C-6,5 -7,1 -4,-1 Z"/></symbol>
    <symbol id="spot-splash" overflow="visible"><path d="M-6,-12 C4,-18 16,-8 12,0 C18,4 14,14 4,12 C2,20 -12,16 -14,6 C-22,4 -18,-4 -6,-12 Z"/></symbol>
    <symbol id="spot-drop" overflow="visible"><path d="M2,-18 C10,-16 14,-6 8,2 C16,10 6,20 -2,14 C-12,18 -16,6 -10,-2 C-16,-12 -8,-20 2,-18 Z"/></symbol>
    <symbol id="spot-pair" overflow="visible"><path d="M-16,-4 C-12,-14 0,-12 2,-4 C8,-14 20,-8 16,2 C22,10 8,16 0,10 C-2,16 -14,12 -16,4 C-24,2 -22,0 -16,-4 Z"/></symbol>
    <g id="leopard-spots" fill="#2a241c">
      <use href="#spot-speck" transform="translate(178 305) rotate(15) scale(0.7 0.55)"/>
      <use href="#spot-drop" transform="translate(205 345) rotate(-25) scale(0.65 0.85)"/>
      <use href="#spot-blot" transform="translate(255 365) rotate(-18) scale(1.05 0.8)"/>
      <use href="#spot-bean" transform="translate(295 395) rotate(22) scale(0.9 0.7)"/>
      <use href="#spot-speck" transform="translate(235 415) rotate(40) scale(0.55 0.45)"/>
      <use href="#spot-splash" transform="translate(330 375) rotate(-10) scale(0.85 0.6)"/>
      <use href="#spot-blot" transform="translate(385 400) rotate(12) scale(1.25 0.85)"/>
      <use href="#spot-speck" transform="translate(445 388) rotate(-30) scale(0.6 0.5)"/>
      <use href="#spot-peanut" transform="translate(500 405) rotate(18) scale(1.0 0.7)"/>
      <use href="#spot-comma" transform="translate(555 395) rotate(-35) scale(0.9 1.05)"/>
      <use href="#spot-bean" transform="translate(360 455) rotate(-20) scale(1.15 0.85)"/>
      <use href="#spot-drop" transform="translate(425 470) rotate(35) scale(0.8 1.1)"/>
      <use href="#spot-speck" transform="translate(470 440) rotate(8) scale(0.5 0.4)"/>
      <use href="#spot-pair" transform="translate(520 460) rotate(-12) scale(1.2 0.9)"/>
      <use href="#spot-blot" transform="translate(575 450) rotate(28) scale(1.4 1.05)"/>
      <use href="#spot-splash" transform="translate(610 490) rotate(-22) scale(0.95 0.75)"/>
      <use href="#spot-speck" transform="translate(540 500) rotate(16) scale(0.65 0.5)"/>
      <use href="#spot-comma" transform="translate(490 505) rotate(48) scale(0.75 0.95)"/>
      <use href="#spot-speck" transform="translate(315 520) rotate(-8) scale(0.55 0.7)"/>
      <use href="#spot-drop" transform="translate(590 545) rotate(20) scale(0.5 0.65)"/>
    </g>
    <g id="few-spots" fill="#2a241c">
      <use href="#spot-speck" transform="translate(250 390) rotate(20) scale(0.7 0.55)"/>
      <use href="#spot-bean" transform="translate(470 450) rotate(-15) scale(0.75 0.6)"/>
      <use href="#spot-drop" transform="translate(545 430) rotate(25) scale(0.7 0.85)"/>
      <use href="#spot-speck" transform="translate(600 490) rotate(-10) scale(0.6 0.5)"/>
      <use href="#spot-comma" transform="translate(330 470) rotate(30) scale(0.55 0.7)"/>
    </g>
    <symbol id="path1934" overflow="visible"><path d="m542.95 471.17l-10.36 4.29-31.78 13.21-11.43 5.72-10 6.78-6.43 0.36 9.64-8.22 11.79-16.07 14.64-15 12.5-11.07 21.43 20z" fill-rule="evenodd"/></symbol>
    <symbol id="path1936" overflow="visible"><path d="m283.62 652.05v14.65l-0.5 10.6-3.54 11.12-4.04 6.06-4.04 5.05-2.02-4.04-3.03 2.02-2.02 5.55 0.51 6.57v5.55l-9.1-3.03-18.18-13.63 9.6-6.06 6.06-9.6 2.52-3.03 5.06-28.29 6.56 1.01 5.05-0.5 5.05-1.52 6.06 1.52z" fill-rule="evenodd"/></symbol>
    <symbol id="path1938" overflow="visible"><path d="m621.27 680.84l5.81 5.05 1.01 5.3 1.51 5.31 1.77 5.3 1.51 4.04 0.51 5.81-2.27 6.06-7.33 3.79-8.58 0.25-5.56 7.32-20.2 0.26-7.83-2.78 7.07-13.89 2.78-4.55 3.53 2.02 11.37-2.77 9.34-10.61 4.55-8.08 1.01-7.83z" fill-rule="evenodd"/></symbol>
    <symbol id="path1940" overflow="visible"><path d="m328.83 514.42l-21.72-4.04-8.59 23.23 5.81 36.11 6.06 28.03 6.32 9.6 3.53 43.94 7.58-0.5 7.83-29.8v-14.65l1.51-11.62-1.51-5.81-3.29-13.88-1.01-28.04-2.52-32.57z" fill-rule="evenodd"/></symbol>
    <symbol id="path1942" overflow="visible"><path d="m320.24 651.04l7.33 0.25 8.33-30.05 2.78 10.35 0.25 8.59 4.04 10.86 3.79 8.33v8.08l-4.8 10.61-1.52 4.04-1.26 5.3-0.5 5.31-7.07-2.02 2.02 2.52 2.27 3.54 2.02 3.79-6.31 9.59-7.08-2.52-6.56-7.83-5.05-7.83 9.09-17.68 2.78-4.29-4.55-18.94z" fill-rule="evenodd"/></symbol>
    <symbol id="path1944" overflow="visible"><path d="m237.66 698.52l-6.06 8.33-9.34 8.84-1.52 3.53 6.32 3.04 22.72 1.01 9.1-1.77 6.31-6.06-9.6-3.03-17.93-13.89z" fill-rule="evenodd"/></symbol>
    <symbol id="path1946" overflow="visible"><path d="m312.67 691.95l-8.59 11.11-7.07 9.35 2.78 2.77 22.98-0.25h5.55l3.29-4.54-7.08-2.02-11.86-16.42z" fill-rule="evenodd"/></symbol>
    <symbol id="path1948" overflow="visible"><path d="m630.11 695.99l9.09-6.06 4.54-19.19-5.05-41.92-3.53-1.01-12.63-11.62-3.03 10.61-2.02 14.64 1.77 10.36 2.77 12.62-1.01 15.91 5.31 4.55 3.79 11.11z" fill-rule="evenodd"/></symbol>
    <symbol id="path1954" overflow="visible"><path d="m626.82 687.4l6.32 2.03 6.06 1.13-1.52 7.7-4.54 7.08-3.79-9.35-2.53-8.59z" fill-rule="evenodd"/></symbol>
    <symbol id="path1950" overflow="visible"><path d="m617.98 636.9l-3.28-18.94 1.01-13.14 3.03-8.83-0.5-12.38 4.29-13.13-13.38-38.13-1.27-33.59 2.53-17.93 6.82 33.08 12.12 45.46 8.33 8.08-0.5 17.93 1.51 42.68-3.28-0.51-12.63-11.61-3.03 9.34-1.77 11.62z" fill-rule="evenodd"/></symbol>
    <symbol id="path1952" overflow="visible"><path d="m599.74 344.39l21.78 11.78 11.07 13.93 4.65 16.07 5.71 23.22-0.36 28.21-4.28 27.14-9.29 80.72-27.5 99.64-5.36 20-11.78 20.36-9.64 2.5-16.79-5.72-4.29-12.14 17.5-20.36 9.29-25.35 7.5-18.22 2.86-22.5 20-101.78 8.57-22.86 4.28-26.43 6.43-26.79v-15.35l-7.5-17.86-11.78-10.36-11.07-17.85z" fill-rule="evenodd"/></symbol>
    <symbol id="path2866" overflow="visible"><path d="m565.2 528.05l-15.4-11.61-12.12-12.13-14.9-25 7.83-2.77 45.71 25-11.12 26.51z" fill-rule="evenodd"/></symbol>
    <symbol id="path1932" overflow="visible"><path d="m306.86 510.12l-4.55 14.15-5.05 13.13-1.51 21.21-3.54 16.16-0.5 19.2-4.05 14.14-3.03 6.06-1.51 37.88-4.55-1.01h-3.03l-8.08 2.02-5.55-1.52 2.02-32.32v-15.15l-2.02-14.65 2.02-13.64-0.51-40.91-6.06-38.38-8.59-4.55-10.1-13.64-1.01-21.72-8.08-21.71v-8.08l-26.26-37.38-21.22-37.88-6.56-15.66 3.53-11.11 8.08-26.26 1.01-18.19-3.03-32.83 35.86 32.83 21.72 14.15 13.64 6.56 10.43 8.34 10.28 2.35 10.1 5 9.93 6.83 17.34 5.26 17.73 1.45 14.03 1.43 12.69 8.23 20.71 10.1 41.41 5.05 34.85-6.06 29.3-7.57 25.25-9.09 32.33-3.03 23.74 5.05 32.83 9.59 4.54 7.58 7.58 11.62 12.12 11.11 5.56 16.16 0.5 14.65-6.56 29.8-3.54 23.23-9.09 23.23-3.03 17.68 2.52 33.34 7.07 23.74 5.56 14.14-2.02 7.57-2.02 5.56v12.12l-3.03 9.09-1.01 12.63 2.52 15.15 2.02 19.7 2.53 13.13v14.14l-1.01 9.1-4.55 8.08-9.09 10.1-11.61 3.03-4.04-2.02 5.55-12.63 4.55-14.14v-14.65l-1.01-30.81-1.52-27.27-8.08-24.75-4.55-16.16-26.78-51.76-19.46-31.6-17.9-14.6-12.42-2.46-15.86 11.52-11.12 14.65-9.59 9.09-13.64 5.56-34.85 10.6-44.95 2.53-32.83-5.56-19.7-1.01-20.2-4.04z" fill-rule="evenodd"/></symbol>
    <symbol id="path1956" overflow="visible"><path d="m175.03 335.87l-2.52 13.13-3.03 14.65-7.58 1.52-9.09 0.5-6.57-4.54-6.06-18.69-3.03-14.65-2.02-14.65-4.04-20.2-1.01-13.64-2.52-11.61 3.03-12.13 6.06-11.61 11.11-11.11 10.6-2.02 8.09 2.52 15.15 11.62 3.28 2.52 3.28 31.07-1.26 18.68-7.07 25.51-4.8 13.13z" fill-rule="evenodd"/></symbol>
    <symbol id="path1958" overflow="visible"><path d="m160.89 250.77l2.78 5.3v5.05l-3.54 2.27v10.36l-1.01 8.58-2.02 3.03-1.01 6.07 0.25 6.31-1.51 4.29-3.79 1.01-4.8-3.28 1.27-6.31 4.79-7.83 1.77-4.3 1.77-15.15-3.54-4.29 3.03-9.35 5.56-1.76z" fill-rule="evenodd"/></symbol>
    <symbol id="path2846" overflow="visible"><path d="m127.81 267.69l2.52-1.52 3.29-0.25 1.51 3.91 1.26 4.67s-2.02 2.78-2.52 2.91c-0.51 0.13-3.54 1.77-3.54 1.77l-2.52-11.49z" fill-rule="evenodd"/></symbol>
    <symbol id="path2848" overflow="visible"><path d="m187.03 268.07l-3.03-1.9-2.65 1.01-1.65 2.65 0.64 3.41 3.28 2.65 4.17 3.16-0.76-10.98z" fill-rule="evenodd"/></symbol>
    <symbol id="path2850" overflow="visible"><path d="m137.06 329.8l1.96-5.54 1.79-2.85 1.96 0.53 2.5 3.75 5.54 0.72 6.6-3.04 5.36-2.32 3.75-1.97 3.75 2.5 3.22 4.29 3.21 3.75-1.61 5.36-5.89 28.93-7.68 1.25-9.28 0.53-6.08-4.82-5.71-17.32-3.39-13.75z" fill-rule="evenodd"/></symbol>
    <symbol id="path2852" overflow="visible"><path d="m149.38 360.16l4.11 2.14 12.85-0.89 2.15-4.83-3.93 1.43-4.47 1.43-10.71 0.72z" fill-rule="evenodd"/></symbol>
    <symbol id="path2854" overflow="visible"><path d="m149.02 343.37l-3.39 0.54-3.04-2.68-1.96-5.36-1.97-5.54 0.54-4.1 3.04 1.07v3.03l1.42 3.4 1.61 2.85 3.75 6.79z" fill-rule="evenodd"/></symbol>
    <symbol id="path2856" overflow="visible"><path d="m155.45 342.48l2.86-5 4.64-5 2.14-7.86 4.65 3.75 0.17 5.18-3.75 5.71-5.71 3.75-5-0.53z" fill-rule="evenodd"/></symbol>
    <symbol id="path2858" overflow="visible"><path d="m182.86 246.22l3.28-6.82 3.03-15.66-4.54-14.64-6.06-8.59-2.53 8.08-4.04 4.55 0.25 24.49 10.61 8.59z" fill-rule="evenodd"/></symbol>
    <symbol id="path2860" overflow="visible"><path d="m146.75 233.85l-9.6 9.09-5.05-2.53-4.04-11.11 1.52-15.66 5.05-9.59 3.53 7.57 6.57 11.11 2.02 11.12z" fill-rule="evenodd"/></symbol>
    <symbol id="path2862" overflow="visible"><path d="m142.71 233.09l-2.53-10.1-5.81-10.36-2.02 8.34 1.01 5.3 2.28 7.58 3.53 3.78 3.54-4.54z" fill-rule="evenodd"/></symbol>
    <symbol id="path2864" overflow="visible"><path d="m182.36 240.41l-7.08-5.81 0.26-19.19 4.04-6.82 2.52 4.8 0.26 8.08v18.94z" fill-rule="evenodd"/></symbol>
  </defs>
  <g id="neither-modeled-pattern" transform="translate(0 0)">
    <rect width="500" height="620" rx="18" fill="url(#field)"/>
    <g transform="translate(22 8) scale(0.88) translate(-127.06 -200.01)">
      <g mask="url(#horse-silhouette)">
      <use href="#silhouette" fill="#7b4014"/>
      <g id="neither-modeled-pattern-base" fill="#7b4014">
        <use href="#path1940"/>
        <use href="#path1950"/>
        <use href="#path2866"/>
        <use href="#path1932"/>
        <use href="#path1956"/>
      </g>
      <g fill="#fcfbfa">
        <use href="#path1936"/>
        <use href="#path1942"/>
        <use href="#path1948"/>
      </g>
      <g fill="#3d2918">
        <use href="#path1952"/>
      </g>
      <g fill="#2a1a0c">
        <use href="#path2858"/>
        <use href="#path2860"/>
      </g>
      <g fill="#f0d2ae">
        <use href="#path1958"/>
      </g>
      <g fill="#d7c0b0">
        <use href="#path1938"/>
        <use href="#path1944"/>
        <use href="#path1946"/>
        <use href="#path1954"/>
      </g>
      <g fill="#14110e">
        <use href="#path2846"/>
        <use href="#path2848"/>
        <use href="#path2850"/>
        <use href="#path2852"/>
        <use href="#path2854"/>
        <use href="#path2856"/>
        <use href="#path2862"/>
        <use href="#path2864"/>
      </g>
      </g>
      <use href="#silhouette" fill="none" stroke="#24180f" stroke-width="2.4" stroke-linejoin="round" stroke-linecap="round"/>
    </g>
    <text x="250" y="582" text-anchor="middle" font-family="Palatino, Georgia, serif" font-size="26" font-weight="700" fill="#2c241c">Neither modeled pattern</text>
    <text x="250" y="606" text-anchor="middle" font-family="Palatino, Georgia, serif" font-size="14" fill="#5c5146">No frame and no leopard complex</text>
  </g>
  <g id="frame-overo" transform="translate(520 0)">
    <rect width="500" height="620" rx="18" fill="url(#field)"/>
    <g transform="translate(22 8) scale(0.88) translate(-127.06 -200.01)">
      <g mask="url(#horse-silhouette)">
      <use href="#silhouette" fill="#7b4014"/>
      <g id="frame-overo-base" fill="#7b4014">
        <use href="#path1940"/>
        <use href="#path1950"/>
        <use href="#path2866"/>
        <use href="#path1932"/>
        <use href="#path1956"/>
      </g>
      <g fill="#fcfbfa" filter="url(#organic-frame)">
        <path d="M278 448 C250 424 296 384 322 414 C348 388 346 436 326 460 C358 472 308 502 282 480 C260 494 266 462 278 448 Z"/>
        <path d="M300 478 C280 512 318 534 340 512 C352 538 322 556 302 530 C286 548 284 504 300 478 Z"/>
        <path d="M332 402 C320 388 350 384 354 400 C360 388 342 418 326 412 C316 416 324 410 332 402 Z"/>
        <path d="M448 508 C428 492 456 476 476 496 C496 482 502 512 478 522 C490 538 448 534 438 516 C422 522 434 514 448 508 Z"/>
        <path d="M468 532 C454 516 486 506 498 522 C508 538 476 548 462 534 Z"/>
        <path d="M572 452 C552 432 590 416 616 442 C636 428 640 468 616 484 C632 504 590 500 574 478 C558 488 562 462 572 452 Z"/>
        <path d="M604 424 C590 408 624 400 636 418 C644 404 630 444 610 438 Z"/>
      </g>
      <g fill="#fcfbfa">
        <use href="#path1936"/>
        <use href="#path1942"/>
        <use href="#path1948"/>
      </g>
      <g fill="#3d2918">
        <use href="#path1952"/>
      </g>
      <g fill="#2a1a0c">
        <use href="#path2858"/>
        <use href="#path2860"/>
      </g>
      <g fill="#f0d2ae">
        <use href="#path1958"/>
      </g>
      <g fill="#d7c0b0">
        <use href="#path1938"/>
        <use href="#path1944"/>
        <use href="#path1946"/>
        <use href="#path1954"/>
      </g>
      <g fill="#14110e">
        <use href="#path2846"/>
        <use href="#path2848"/>
        <use href="#path2850"/>
        <use href="#path2852"/>
        <use href="#path2854"/>
        <use href="#path2856"/>
        <use href="#path2862"/>
        <use href="#path2864"/>
      </g>
      </g>
      <use href="#silhouette" fill="none" stroke="#24180f" stroke-width="2.4" stroke-linejoin="round" stroke-linecap="round"/>
    </g>
    <text x="250" y="582" text-anchor="middle" font-family="Palatino, Georgia, serif" font-size="26" font-weight="700" fill="#2c241c">Frame-overo</text>
    <text x="250" y="606" text-anchor="middle" font-family="Palatino, Georgia, serif" font-size="14" fill="#5c5146">Colored frame, white side</text>
  </g>
  <g id="leopard-complex" transform="translate(1040 0)">
    <rect width="500" height="620" rx="18" fill="url(#field)"/>
    <g transform="translate(22 8) scale(0.88) translate(-127.06 -200.01)">
      <g mask="url(#horse-silhouette)">
      <use href="#silhouette" fill="#f3eee6"/>
      <g id="leopard-complex-base" fill="#f3eee6">
        <use href="#path1940"/>
        <use href="#path1950"/>
        <use href="#path2866"/>
        <use href="#path1932"/>
        <use href="#path1956"/>
      </g>
      <use href="#leopard-spots" fill="#2a241c"/>
      <g fill="#fcfbfa">
        <use href="#path1936"/>
        <use href="#path1942"/>
        <use href="#path1948"/>
      </g>
      <g fill="#3d2918">
        <use href="#path1952"/>
      </g>
      <g fill="#2a1a0c">
        <use href="#path2858"/>
        <use href="#path2860"/>
      </g>
      <g fill="#f0d2ae">
        <use href="#path1958"/>
      </g>
      <g fill="#d7c0b0">
        <use href="#path1938"/>
        <use href="#path1944"/>
        <use href="#path1946"/>
        <use href="#path1954"/>
      </g>
      <g fill="#14110e">
        <use href="#path2846"/>
        <use href="#path2848"/>
        <use href="#path2850"/>
        <use href="#path2852"/>
        <use href="#path2854"/>
        <use href="#path2856"/>
        <use href="#path2862"/>
        <use href="#path2864"/>
      </g>
      </g>
      <use href="#silhouette" fill="none" stroke="#24180f" stroke-width="2.4" stroke-linejoin="round" stroke-linecap="round"/>
    </g>
    <text x="250" y="582" text-anchor="middle" font-family="Palatino, Georgia, serif" font-size="26" font-weight="700" fill="#2c241c">Leopard-complex</text>
    <text x="250" y="606" text-anchor="middle" font-family="Palatino, Georgia, serif" font-size="14" fill="#5c5146">Pale coat, spots over the body</text>
  </g>
  <g id="fewspot" transform="translate(260 640)">
    <rect width="500" height="620" rx="18" fill="url(#field)"/>
    <g transform="translate(22 8) scale(0.88) translate(-127.06 -200.01)">
      <g mask="url(#horse-silhouette)">
      <use href="#silhouette" fill="#fbfaf7"/>
      <g id="fewspot-base" fill="#fbfaf7">
        <use href="#path1940"/>
        <use href="#path1950"/>
        <use href="#path2866"/>
        <use href="#path1932"/>
        <use href="#path1956"/>
      </g>
      <use href="#few-spots" fill="#2a241c"/>
      <g fill="#fcfbfa">
        <use href="#path1936"/>
        <use href="#path1942"/>
        <use href="#path1948"/>
      </g>
      <g fill="#3d2918">
        <use href="#path1952"/>
      </g>
      <g fill="#2a1a0c">
        <use href="#path2858"/>
        <use href="#path2860"/>
      </g>
      <g fill="#f0d2ae">
        <use href="#path1958"/>
      </g>
      <g fill="#d7c0b0">
        <use href="#path1938"/>
        <use href="#path1944"/>
        <use href="#path1946"/>
        <use href="#path1954"/>
      </g>
      <g fill="#14110e">
        <use href="#path2846"/>
        <use href="#path2848"/>
        <use href="#path2850"/>
        <use href="#path2852"/>
        <use href="#path2854"/>
        <use href="#path2856"/>
        <use href="#path2862"/>
        <use href="#path2864"/>
      </g>
      </g>
      <use href="#silhouette" fill="none" stroke="#24180f" stroke-width="2.4" stroke-linejoin="round" stroke-linecap="round"/>
    </g>
    <text x="250" y="582" text-anchor="middle" font-family="Palatino, Georgia, serif" font-size="26" font-weight="700" fill="#2c241c">Fewspot</text>
    <text x="250" y="606" text-anchor="middle" font-family="Palatino, Georgia, serif" font-size="14" fill="#5c5146">Mostly white, only a few spots</text>
  </g>
  <g id="pintaloosa" transform="translate(780 640)">
    <rect width="500" height="620" rx="18" fill="url(#field)"/>
    <g transform="translate(22 8) scale(0.88) translate(-127.06 -200.01)">
      <g mask="url(#horse-silhouette)">
      <use href="#silhouette" fill="#7b4014"/>
      <g id="pintaloosa-base" fill="#7b4014">
        <use href="#path1940"/>
        <use href="#path1950"/>
        <use href="#path2866"/>
        <use href="#path1932"/>
        <use href="#path1956"/>
      </g>
      <use href="#leopard-spots" fill="#2a241c"/>
      <g fill="#fcfbfa" filter="url(#organic-frame)">
        <path d="M278 448 C250 424 296 384 322 414 C348 388 346 436 326 460 C358 472 308 502 282 480 C260 494 266 462 278 448 Z"/>
        <path d="M300 478 C280 512 318 534 340 512 C352 538 322 556 302 530 C286 548 284 504 300 478 Z"/>
        <path d="M332 402 C320 388 350 384 354 400 C360 388 342 418 326 412 C316 416 324 410 332 402 Z"/>
        <path d="M448 508 C428 492 456 476 476 496 C496 482 502 512 478 522 C490 538 448 534 438 516 C422 522 434 514 448 508 Z"/>
        <path d="M468 532 C454 516 486 506 498 522 C508 538 476 548 462 534 Z"/>
        <path d="M572 452 C552 432 590 416 616 442 C636 428 640 468 616 484 C632 504 590 500 574 478 C558 488 562 462 572 452 Z"/>
        <path d="M604 424 C590 408 624 400 636 418 C644 404 630 444 610 438 Z"/>
      </g>
      <g fill="#fcfbfa">
        <use href="#path1936"/>
        <use href="#path1942"/>
        <use href="#path1948"/>
      </g>
      <g fill="#3d2918">
        <use href="#path1952"/>
      </g>
      <g fill="#2a1a0c">
        <use href="#path2858"/>
        <use href="#path2860"/>
      </g>
      <g fill="#f0d2ae">
        <use href="#path1958"/>
      </g>
      <g fill="#d7c0b0">
        <use href="#path1938"/>
        <use href="#path1944"/>
        <use href="#path1946"/>
        <use href="#path1954"/>
      </g>
      <g fill="#14110e">
        <use href="#path2846"/>
        <use href="#path2848"/>
        <use href="#path2850"/>
        <use href="#path2852"/>
        <use href="#path2854"/>
        <use href="#path2856"/>
        <use href="#path2862"/>
        <use href="#path2864"/>
      </g>
      </g>
      <use href="#silhouette" fill="none" stroke="#24180f" stroke-width="2.4" stroke-linejoin="round" stroke-linecap="round"/>
    </g>
    <text x="250" y="582" text-anchor="middle" font-family="Palatino, Georgia, serif" font-size="26" font-weight="700" fill="#2c241c">Pintaloosa</text>
    <text x="250" y="606" text-anchor="middle" font-family="Palatino, Georgia, serif" font-size="14" fill="#5c5146">Frame patches and leopard spots</text>
  </g>
</svg>
