<?xml version="1.0" encoding="UTF-8" standalone="no"?>
<!-- Generator: Adobe Illustrator 12.0.0, SVG Export Plug-In . SVG Version: 6.00 Build 51448)  -->

<svg
   version="1.1"
   id="Layer_1"
   width="581"
   height="254"
   viewBox="0 0 581 254"
   overflow="visible"
   enable-background="new 0 0 581 254"
   xml:space="preserve"
   sodipodi:docname="minimal-membrane.svg"
   inkscape:version="1.4.3 (0d15f75, 2025-12-25)"
   xmlns:inkscape="http://www.inkscape.org/namespaces/inkscape"
   xmlns:sodipodi="http://sodipodi.sourceforge.net/DTD/sodipodi-0.dtd"
   xmlns="http://www.w3.org/2000/svg"
   xmlns:svg="http://www.w3.org/2000/svg"><defs
   id="defs240" /><sodipodi:namedview
   id="namedview240"
   pagecolor="#ffffff"
   bordercolor="#000000"
   borderopacity="0.25"
   inkscape:showpageshadow="2"
   inkscape:pageopacity="0.0"
   inkscape:pagecheckerboard="0"
   inkscape:deskcolor="#d1d1d1"
   inkscape:zoom="1.6377953"
   inkscape:cx="290.63462"
   inkscape:cy="125.47356"
   inkscape:window-width="1709"
   inkscape:window-height="994"
   inkscape:window-x="0"
   inkscape:window-y="39"
   inkscape:window-maximized="0"
   inkscape:current-layer="Layer_1" />
<linearGradient
   id="XMLID_6_"
   gradientUnits="userSpaceOnUse"
   x1="494.42969"
   y1="209.71777"
   x2="518.00958"
   y2="196.94533"
   gradientTransform="matrix(0.36488 -0.93106 0.93106 0.36488 144.93985 584.73346)">
	<stop
   offset="0"
   style="stop-color:#B2B2B2"
   id="stop1" />
	<stop
   offset="1"
   style="stop-color:#FFFFFF"
   id="stop2" />
</linearGradient>

<linearGradient
   id="XMLID_7_"
   gradientUnits="userSpaceOnUse"
   x1="273.16162"
   y1="107.90088"
   x2="296.74078"
   y2="95.12882"
   gradientTransform="matrix(0.94055 -0.33964 0.33964 0.94055 -17.08613 103.6792)">
	<stop
   offset="0"
   style="stop-color:#B2B2B2"
   id="stop3" />
	<stop
   offset="1"
   style="stop-color:#FFFFFF"
   id="stop4" />
</linearGradient>

<linearGradient
   id="XMLID_8_"
   gradientUnits="userSpaceOnUse"
   x1="114.54492"
   y1="245.37695"
   x2="138.12517"
   y2="232.60432"
   gradientTransform="matrix(-0.08186 -0.99664 0.99664 -0.08186 -67.37161 344.013)">
	<stop
   offset="0"
   style="stop-color:#B2B2B2"
   id="stop5" />
	<stop
   offset="1"
   style="stop-color:#FFFFFF"
   id="stop6" />
</linearGradient>
<path
   fill="url(#XMLID_8_)"
   d="M163.20361,204.77734l-3.43164,2.5293l10.13574,1.05273l-5.58887-8.99609l0.31152,4.53418  c0,0-15.44629-9.76855-7.98828-21.09766l-7.78516,0.63867C150.3042,201.06055,163.20361,204.77734,163.20361,204.77734z"
   id="path6" />
<linearGradient
   id="XMLID_9_"
   gradientUnits="userSpaceOnUse"
   x1="162.10693"
   y1="71.6084"
   x2="185.68611"
   y2="58.83635"
   gradientTransform="matrix(-0.86022 -0.50991 -0.50991 0.86022 330.65717 116.23816)">
	<stop
   offset="0"
   style="stop-color:#B2B2B2"
   id="stop7" />
	<stop
   offset="1"
   style="stop-color:#FFFFFF"
   id="stop8" />
</linearGradient>
<path
   fill="url(#XMLID_9_)"
   d="M152.26563,88.88867l3.77539-1.97754l-3.49072,9.57275l-5.6416-8.96289l3.94092,2.26563  c0,0-2.02051-18.16406-15.47168-16.41846l3.98291-6.71924C154.57031,75.66455,152.26563,88.88867,152.26563,88.88867z"
   id="path8" />
<linearGradient
   id="XMLID_10_"
   gradientUnits="userSpaceOnUse"
   x1="156.41992"
   y1="94.15967"
   x2="179.99927"
   y2="81.38752">
	<stop
   offset="0"
   style="stop-color:#B2B2B2"
   id="stop9" />
	<stop
   offset="1"
   style="stop-color:#FFFFFF"
   id="stop10" />
</linearGradient>
<path
   fill="url(#XMLID_10_)"
   d="M161.73975,89.98975L159.5,86.36377l-1.87842,10.01465l9.42334-4.8335L162.5,91.48438  c0,0,11-14.59473,21.68115-6.23438v-7.81104C166.5,77.43896,161.73975,89.98975,161.73975,89.98975z"
   id="path10" />





<polygon
   fill="#00FF00"
   stroke="#000000"
   points="144.87012,74.3418 140.0542,75.94092 136.26123,72.56934 137.28467,67.59912   142.10059,66 145.89355,69.37158 "
   id="polygon15" />
<polygon
   fill="#00FF00"
   stroke="#000000"
   points="189.56689,210.40137 184.75,212 180.95752,208.62793 181.98047,203.6582   186.79736,202.05859 190.58984,205.43066 "
   id="polygon16" />





<polygon
   fill="#00FF00"
   stroke="#000000"
   points="186.81592,86.40039 182,88 178.20752,84.62842 179.23047,79.65723   184.04688,78.05908 187.83984,81.43066 "
   id="polygon22" />


<g
   id="g27">
	<g
   id="g26">
		<path
   fill="#ACF1FC"
   stroke="#000000"
   stroke-width="0.9017"
   d="M110.57178,112.01709    c-0.62598,0.12305-1.09717,0.63184-1.2002,1.29688c-0.22705,1.46143-0.89844,2.76465-1.60889,4.14502    c-0.68262,1.32471-1.38818,2.69385-1.70703,4.25684c-0.63867,3.12744-0.25098,6.70166,0.12354,10.15771    c0.21826,2.01172,0.42432,3.91113,0.42432,5.64063c0,0.73877,0.59912,1.33789,1.33789,1.33789s1.3374-0.59912,1.3374-1.33789    c0-1.87354-0.22363-3.93506-0.43994-5.9292c-0.22119-2.04346-0.44824-4.13037-0.44824-6.07373    c0-1.1499,0.08008-2.24951,0.28613-3.26074c0.24512-1.20068,0.8374-2.3501,1.46387-3.56641    c0.48438-0.94092,0.96533-1.9126,1.34033-2.96094c0.27539,0.33887,0.54248,0.68408,0.74463,0.96826    c0.87793,1.49951,1.00293,4.50732,1.07715,6.31006c0.03711,0.89893,0.05225,1.80615,0.05225,2.71777    c0,2.12793-0.08301,4.27441-0.16357,6.37109c-0.08252,2.12891-0.16748,4.33105-0.16748,6.49414    c0,0.73877,0.59863,1.3374,1.3374,1.3374s1.33789-0.59863,1.33789-1.3374c0-2.11133,0.08398-4.28711,0.16504-6.39111    c0.11768-3.04639,0.23926-6.19678,0.11279-9.26416c-0.0918-2.23877-0.22852-5.56494-1.46924-7.63916    C114.48535,115.25244,112.31738,111.67578,110.57178,112.01709z"
   id="path25" />
	</g>
	<circle
   fill="#ACF1FC"
   stroke="#000000"
   stroke-width="0.9017"
   cx="110.88379"
   cy="112.10059"
   r="6.15283"
   id="circle26" />
</g>
<g
   id="g29">
	<g
   id="g28">
		<path
   fill="#ACF1FC"
   stroke="#000000"
   stroke-width="0.9017"
   d="M111.1958,168.09375    c0.62598-0.12305,1.09668-0.63281,1.2002-1.29492c0.22656-1.46289,0.89844-2.76563,1.60938-4.14648    c0.68213-1.32422,1.3877-2.69287,1.70703-4.25684c0.6377-3.12744,0.25098-6.70117-0.12402-10.1582    c-0.21826-2.01123-0.42432-3.91113-0.42432-5.64014c0-0.73926-0.59863-1.33789-1.3374-1.33789s-1.33789,0.59863-1.33789,1.33789    c0,1.87305,0.22363,3.93555,0.43994,5.9292c0.22168,2.04346,0.44775,4.12988,0.44775,6.07373    c0,1.15039-0.0791,2.24902-0.28564,3.26025c-0.24463,1.20166-0.83691,2.35107-1.46387,3.56738    c-0.48438,0.94141-0.96533,1.91309-1.34033,2.96094c-0.27539-0.33789-0.54297-0.68555-0.74463-0.96875    c-0.87793-1.49805-1.00342-4.50732-1.07715-6.31006c-0.03662-0.89795-0.05225-1.80664-0.05225-2.71729    c0-2.12842,0.08301-4.27441,0.16406-6.37158c0.08203-2.12939,0.16699-4.33105,0.16699-6.49414    c0-0.73877-0.59863-1.3374-1.3374-1.3374c-0.73926,0-1.3374,0.59863-1.3374,1.3374c0,2.11182-0.08447,4.28711-0.16553,6.3916    c-0.11816,3.0459-0.23926,6.19678-0.11279,9.26367c0.0918,2.23828,0.229,5.56592,1.46924,7.64014    C107.28223,164.85938,109.45068,168.43555,111.1958,168.09375z"
   id="path27" />
	</g>
	<circle
   fill="#ACF1FC"
   stroke="#000000"
   stroke-width="0.9017"
   cx="110.88379"
   cy="168.01172"
   r="6.15283"
   id="circle28" />
</g>
<g
   id="g31">
	<g
   id="g30">
		<path
   fill="#ACF1FC"
   stroke="#000000"
   stroke-width="0.9017"
   d="M124.48242,111.75    c-0.62549,0.12256-1.09668,0.63135-1.2002,1.29639c-0.22656,1.46143-0.89795,2.76514-1.60889,4.14502    c-0.68262,1.32422-1.3877,2.69385-1.70703,4.25684c-0.63818,3.12744-0.25049,6.70117,0.12354,10.15771    c0.21826,2.01123,0.42432,3.91162,0.42432,5.64063c0,0.73877,0.59912,1.33789,1.33789,1.33789s1.3374-0.59912,1.3374-1.33789    c0-1.87354-0.22363-3.93506-0.43945-5.9292c-0.22168-2.04346-0.44824-4.13037-0.44824-6.07373    c0-1.1499,0.07959-2.25,0.28613-3.26074c0.24512-1.20068,0.83691-2.34961,1.46387-3.56641    c0.48438-0.94092,0.96484-1.91309,1.33984-2.96094c0.27588,0.33887,0.54297,0.68457,0.74463,0.96826    c0.87793,1.49951,1.00342,4.50732,1.07764,6.31006c0.03613,0.89893,0.05225,1.80615,0.05225,2.71777    c0,2.12793-0.08301,4.27441-0.16406,6.37109c-0.08252,2.12939-0.16699,4.33105-0.16699,6.49414    c0,0.73877,0.59863,1.33789,1.3374,1.33789s1.33789-0.59912,1.33789-1.33789c0-2.11133,0.08398-4.28711,0.16504-6.39111    c0.11768-3.04639,0.23877-6.19629,0.11279-9.26416c-0.09229-2.23877-0.229-5.56445-1.46924-7.63916    C128.39648,114.98486,126.22803,111.4082,124.48242,111.75z"
   id="path29" />
	</g>
	<circle
   fill="#ACF1FC"
   stroke="#000000"
   stroke-width="0.9017"
   cx="124.79492"
   cy="111.83252"
   r="6.15283"
   id="circle30" />
</g>
<g
   id="g33">
	<g
   id="g32">
		<path
   fill="#ACF1FC"
   stroke="#000000"
   stroke-width="0.9017"
   d="M125.10645,167.82617    c0.62598-0.12305,1.09668-0.63086,1.2002-1.29688c0.22705-1.46094,0.89893-2.76367,1.60938-4.14453    c0.68262-1.32422,1.3877-2.69385,1.70703-4.25684c0.6377-3.12793,0.25098-6.70117-0.12402-10.15723    c-0.21826-2.01221-0.42432-3.91162-0.42432-5.64111c0-0.73877-0.59863-1.3374-1.3374-1.3374s-1.33789,0.59863-1.33789,1.3374    c0,1.87305,0.22363,3.93555,0.44043,5.92871c0.22168,2.04395,0.44775,4.13086,0.44775,6.07422    c0,1.15039-0.07959,2.24902-0.28564,3.26074c-0.24512,1.20117-0.8374,2.35059-1.46436,3.56689    c-0.48438,0.94141-0.96533,1.91309-1.34033,2.96094c-0.2749-0.33789-0.54297-0.68555-0.74463-0.96875    c-0.87744-1.49805-1.00293-4.50684-1.07715-6.31006c-0.03662-0.89844-0.05176-1.80615-0.05176-2.71729    c0-2.12744,0.08252-4.27441,0.16357-6.37207c0.08252-2.12891,0.16748-4.33057,0.16748-6.49365    c0-0.73877-0.59912-1.3374-1.33789-1.3374s-1.3374,0.59863-1.3374,1.3374c0,2.11182-0.08398,4.28711-0.16504,6.3916    c-0.11816,3.0459-0.23975,6.19678-0.11279,9.26367c0.09131,2.23828,0.22852,5.56494,1.46924,7.64014    C121.19336,164.5918,123.36182,168.16797,125.10645,167.82617z"
   id="path31" />
	</g>
	<circle
   fill="#ACF1FC"
   stroke="#000000"
   stroke-width="0.9017"
   cx="124.79492"
   cy="167.74414"
   r="6.15283"
   id="circle32" />
</g>
<g
   id="g35">
	<g
   id="g34">
		<path
   fill="#ACF1FC"
   stroke="#000000"
   stroke-width="0.9017"
   d="M180.7915,112.15381    c-0.62598,0.12207-1.09717,0.63135-1.2002,1.29639c-0.22705,1.46143-0.89844,2.76514-1.60938,4.14502    c-0.68213,1.32471-1.3877,2.69385-1.70654,4.25684c-0.63867,3.12744-0.25098,6.70166,0.12354,10.15771    c0.21777,2.01172,0.42432,3.91162,0.42432,5.64111c0,0.73877,0.59863,1.3374,1.3374,1.3374    c0.73926,0,1.33789-0.59863,1.33789-1.3374c0-1.87402-0.22363-3.93555-0.43994-5.9292    c-0.22168-2.04395-0.44824-4.13037-0.44824-6.07373c0-1.1499,0.07959-2.25,0.28564-3.26074    c0.24561-1.20117,0.8374-2.3501,1.46387-3.56689c0.48486-0.94092,0.96582-1.9126,1.34082-2.96143    c0.27539,0.33984,0.54297,0.68506,0.74463,0.96875c0.87744,1.49902,1.00293,4.50732,1.07715,6.31006    c0.03662,0.89893,0.05225,1.80664,0.05225,2.71777c0,2.12793-0.08301,4.27441-0.16406,6.37109    c-0.08252,2.12939-0.16699,4.33105-0.16699,6.49414c0,0.73877,0.59863,1.3374,1.3374,1.3374s1.3374-0.59863,1.3374-1.3374    c0-2.11182,0.08447-4.28711,0.16553-6.39063c0.11768-3.04688,0.23926-6.19678,0.1123-9.26465    c-0.09131-2.23877-0.22852-5.56445-1.46924-7.63867C184.70459,115.38867,182.53662,111.8125,180.7915,112.15381z"
   id="path33" />
	</g>
	<circle
   fill="#ACF1FC"
   stroke="#000000"
   stroke-width="0.9017"
   cx="181.10327"
   cy="112.23633"
   r="6.15308"
   id="circle34" />
</g>
<g
   id="g37">
	<g
   id="g36">
		<path
   fill="#ACF1FC"
   stroke="#000000"
   stroke-width="0.9017"
   d="M181.41553,168.23047    c0.62549-0.12305,1.09668-0.63086,1.2002-1.29688c0.22656-1.46094,0.89844-2.76563,1.60938-4.14453    c0.68213-1.32422,1.3877-2.69385,1.70654-4.25684c0.63818-3.12793,0.25098-6.70215-0.12354-10.15723    c-0.21875-2.01221-0.42432-3.91162-0.42432-5.6416c0-0.73877-0.59863-1.3374-1.33789-1.3374    c-0.73877,0-1.3374,0.59863-1.3374,1.3374c0,1.87451,0.22363,3.93555,0.43994,5.9292    c0.22119,2.04395,0.44775,4.13086,0.44775,6.07324c0,1.15088-0.0791,2.25098-0.28564,3.26172    c-0.24561,1.20117-0.83691,2.34912-1.46387,3.56689c-0.48438,0.93945-0.96533,1.91211-1.34033,2.95898    c-0.27588-0.33789-0.54297-0.68262-0.74463-0.96582c-0.87793-1.50098-1.00342-4.50879-1.07715-6.31104    c-0.03662-0.89941-0.05273-1.80615-0.05273-2.71826c0-2.12744,0.0835-4.27441,0.16455-6.37012    c0.08203-2.12939,0.1665-4.33154,0.1665-6.49463c0-0.73877-0.59863-1.3374-1.3374-1.3374s-1.3374,0.59863-1.3374,1.3374    c0,2.11133-0.08447,4.28711-0.16504,6.39063c-0.11816,3.04688-0.23926,6.19727-0.11279,9.26367    c0.0918,2.24023,0.229,5.56494,1.46924,7.63916C177.50195,164.99609,179.66992,168.57227,181.41553,168.23047z"
   id="path35" />
	</g>
	<circle
   fill="#ACF1FC"
   stroke="#000000"
   stroke-width="0.9017"
   cx="181.10327"
   cy="168.14648"
   r="6.15308"
   id="circle36" />
</g>
<g
   id="g39">
	<g
   id="g38">
		<path
   fill="#ACF1FC"
   stroke="#000000"
   stroke-width="0.9017"
   d="M194.57715,112.01758    c-0.62598,0.12256-1.09717,0.63135-1.2002,1.29688c-0.22705,1.46094-0.89795,2.76465-1.60938,4.14453    c-0.68213,1.32471-1.3877,2.69434-1.70654,4.25684c-0.63867,3.12744-0.25098,6.70166,0.12354,10.1582    c0.21777,2.01172,0.42432,3.91113,0.42432,5.64014c0,0.73926,0.59863,1.33838,1.3374,1.33838    c0.73926,0,1.33789-0.59912,1.33789-1.33838c0-1.87305-0.22363-3.93506-0.43945-5.92871    c-0.22168-2.04395-0.44824-4.13086-0.44824-6.07422c0-1.1499,0.0791-2.24951,0.28564-3.26025    c0.24512-1.20117,0.83691-2.3501,1.46338-3.56641c0.48486-0.94092,0.96582-1.91309,1.34082-2.96143    c0.2749,0.33887,0.54248,0.68457,0.74463,0.96875c0.87793,1.49902,1.00293,4.50684,1.07666,6.31006    c0.0376,0.89844,0.05225,1.80566,0.05225,2.71729c0,2.12842-0.08252,4.27441-0.16357,6.37109    c-0.08154,2.12939-0.16699,4.33105-0.16699,6.49414c0,0.73877,0.59863,1.33789,1.3374,1.33789s1.3374-0.59912,1.3374-1.33789    c0-2.11133,0.08447-4.28662,0.16553-6.39063c0.11719-3.04639,0.23926-6.19678,0.11328-9.26416    c-0.09229-2.23877-0.229-5.56494-1.46924-7.63916C198.49072,115.25293,196.32227,111.67578,194.57715,112.01758z"
   id="path37" />
	</g>
	<circle
   fill="#ACF1FC"
   stroke="#000000"
   stroke-width="0.9017"
   cx="194.88892"
   cy="112.10059"
   r="6.15308"
   id="circle38" />
</g>
<g
   id="g41">
	<g
   id="g40">
		<path
   fill="#ACF1FC"
   stroke="#000000"
   stroke-width="0.9017"
   d="M195.20117,168.09375    c0.62598-0.12109,1.09717-0.63086,1.2002-1.29492c0.22705-1.46289,0.89795-2.76563,1.60938-4.14453    c0.68213-1.32617,1.3877-2.69482,1.70654-4.25879c0.63867-3.12744,0.25098-6.70117-0.12354-10.15625    c-0.21777-2.01221-0.42432-3.91162-0.42432-5.6416c0-0.73877-0.59863-1.3374-1.33789-1.3374    c-0.73877,0-1.3374,0.59863-1.3374,1.3374c0,1.87354,0.22363,3.93506,0.43945,5.9292    c0.22168,2.04297,0.44824,4.12939,0.44824,6.07324c0,1.15039-0.0791,2.25-0.28564,3.26025    c-0.24512,1.20264-0.83691,2.35107-1.46338,3.56738c-0.48486,0.94141-0.96582,1.91309-1.34082,2.96094    c-0.27539-0.33789-0.54297-0.68359-0.74463-0.96875c-0.87793-1.49805-1.00342-4.50635-1.07715-6.31006    c-0.03662-0.89795-0.05273-1.80664-0.05273-2.71729c0-2.12744,0.0835-4.27441,0.16455-6.37158    c0.08203-2.12842,0.16699-4.33057,0.16699-6.49365c0-0.73877-0.59863-1.3374-1.3374-1.3374s-1.3374,0.59863-1.3374,1.3374    c0,2.11133-0.08496,4.28662-0.16553,6.39111c-0.11816,3.04688-0.23926,6.19775-0.11279,9.26367    c0.0918,2.23828,0.229,5.56592,1.46924,7.64014C191.2876,164.85938,193.45605,168.43555,195.20117,168.09375z"
   id="path39" />
	</g>
	<circle
   fill="#ACF1FC"
   stroke="#000000"
   stroke-width="0.9017"
   cx="194.88892"
   cy="168.01172"
   r="6.15308"
   id="circle40" />
</g>










































<g
   id="g159">
	<path
   fill="#51CE7B"
   stroke="#000000"
   d="M172.60596,168.46289c0,6.62695-5.37305,12-12,12h-15.30811c-6.62744,0-12-5.37305-12-12   v-58.0249c0-6.62695,5.37256-12,12-12h15.30811c6.62695,0,12,5.37305,12,12V168.46289z"
   id="path157" />
	<polygon
   fill="#31AF58"
   points="157.625,172.5 163.25,176.75 142.875,176.75 147.93896,172.5 147.93896,104.56348 143,101.25    163.25,101.25 157.625,104.56348  "
   id="polygon157" />
	<path
   fill="#51CE7B"
   stroke="#000000"
   d="M142.625,101.25c0,0,5.625,1,5.625,5.625s0,65.625,0,65.625s-1.625,4.25-5.625,4.25"
   id="path158" />
	<path
   fill="#51CE7B"
   stroke="#000000"
   d="M163,101.25c0,0-5.625,1-5.625,5.625s0,65.625,0,65.625s1.625,4.25,5.625,4.25"
   id="path159" />
</g>































<rect
   fill="none"
   width="581"
   height="254"
   id="rect182" />


















</svg>
