<?xml version="1.0" encoding="UTF-8" standalone="no"?>
<!-- One phospholipid unit: <path> acyl tails + <circle> head.
     Head-down orientation (for the bottom leaflet). The Python
     generator tiles this unit along the membrane and uses a
     rotate(180 ...) wrapper to produce the top leaflet.

     Edit this file in Inkscape to redesign the phospholipid shape.
     Keep id="phospholipid-unit" on the wrapping <g>; the loader
     extracts everything inside that group. -->
<svg xmlns="http://www.w3.org/2000/svg" version="1.1"
     width="120" height="80"
     viewBox="40 140 30 40">
  <g id="phospholipid-unit">
    <path fill="#acf1fc" stroke="#000000" stroke-width="1.15484"
          style="stroke-width:0.64062;stroke-linecap:round;stroke-linejoin:round"
          d="m 49.286376,170.79185 c 0.284201,-0.13548 0.497903,-0.69673 0.544903,-1.42571 0.10286,-1.61065 0.407901,-3.04497 0.730675,-4.56528 0.309694,-1.45797 0.63003,-2.96486 0.775009,-4.68679 0.289523,-3.44332 0.113948,-7.378 -0.05631,-11.18419 -0.09909,-2.21437 -0.192646,-4.30617 -0.192646,-6.20981 0,-0.81393 -0.271783,-1.47302 -0.607193,-1.47302 -0.33541,0 -0.607416,0.65909 -0.607416,1.47302 0,2.06223 0.101531,4.33305 0.199738,6.52806 0.100644,2.24985 0.203283,4.547 0.203283,6.68719 0,1.26658 -0.03591,2.47617 -0.129684,3.58953 -0.111064,1.32304 -0.379966,2.58854 -0.664612,3.9277 -0.219914,1.03649 -0.43827,2.10632 -0.608524,3.26 -0.12503,-0.37202 -0.246514,-0.7548 -0.338069,-1.0666 -0.39859,-1.64936 -0.455563,-4.96257 -0.489037,-6.94738 -0.01662,-0.98864 -0.02375,-1.98912 -0.02375,-2.99175 0,-2.34339 0.03768,-4.70613 0.07449,-7.01512 0.03723,-2.34446 0.07582,-4.76849 0.07582,-7.15005 0,-0.81339 -0.271784,-1.47249 -0.607194,-1.47249 -0.335632,0 -0.607193,0.6591 -0.607193,1.47249 0,2.32511 -0.03836,4.72012 -0.07515,7.03716 -0.05365,3.35354 -0.108626,6.82266 -0.05121,10.19931 0.04168,2.46435 0.103969,6.12809 0.66705,8.41181 0.01022,0.0408 0.994696,3.97824 1.786999,3.60192 z" />
    <circle fill="#acf1fc" stroke="#000000" stroke-width="0.568938"
            cx="48.683674" cy="168.95152" r="2.5333178"
            style="stroke-width:0.64062" />
  </g>
</svg>
